<svg width="150" height="141" viewBox="0 0 150 141" fill="none" xmlns="http://www.w3.org/2000/svg">
<path d="M0 79.1016L42.695 61.229C47.0319 55.2931 51.9078 49.8072 57.2702 44.8525C60.8015 42.9118 67.4456 43.9634 79.609 28.3133C91.3906 13.0481 95.1416 0 100.661 0C109.392 0 115.822 19.5423 125.574 49.1295C132.521 71.7238 140.677 93.9115 150 115.573C139.819 105.745 131.145 95.1475 121.232 95.424C112.019 95.6462 101.786 106.97 90.5901 121.515C81.6964 133.17 69.9097 141.165 65.3059 140.997C65.3059 140.997 53.4092 106.136 43.4483 100.476C39.2526 98.6982 34.4918 99.1102 30.6414 101.582L0 79.0474V79.1016Z" fill="#4499DD"/>
<path d="M95.3555 3.99524C91.7666 8.9933 87.4296 18.1546 79.6084 28.3134C67.445 43.9635 60.8584 42.9118 57.2695 44.8525C51.8862 49.7801 46.9999 55.2715 42.6943 61.229L60.3719 74.6078C75.376 53.4012 83.4118 30.4221 89.6792 15.5417C91.2487 11.5357 93.1477 7.6706 95.3555 3.99524Z" fill="url(#paint0_linear)"/>
<path d="M100.713 0C89.0361 0 81.0527 63.728 37.9287 99.3107C50.0346 97.2562 60.5344 128.394 65.3579 140.997C86.7865 137.219 103.93 94.7572 121.231 95.424C131.145 95.8088 139.819 105.745 150 115.573C126.751 64.9477 115.874 0 100.713 0Z" fill="url(#paint1_linear)"/>
<defs>
<linearGradient id="paint0_linear" x1="79.3012" y1="66.9961" x2="69.0713" y2="35.1169" gradientUnits="userSpaceOnUse">
<stop stop-color="#551122"/>
<stop offset="0.23" stop-color="#552233"/>
<stop offset="0.36" stop-color="#553344"/>
<stop offset="0.51" stop-color="#664455"/>
<stop offset="0.66" stop-color="#556688"/>
<stop offset="0.84" stop-color="#2299DD"/>
</linearGradient>
<linearGradient id="paint1_linear" x1="148.446" y1="87.0573" x2="51.6398" y2="64.1161" gradientUnits="userSpaceOnUse">
<stop offset="0.081" stop-color="#CC3333"/>
<stop offset="0.189" stop-color="#DE5239"/>
<stop offset="0.313" stop-color="#F06E3E"/>
<stop offset="0.421" stop-color="#FA8042"/>
<stop offset="0.5" stop-color="#FE8643"/>
<stop offset="0.58" stop-color="#FA7F42"/>
<stop offset="0.696" stop-color="#EF6C3E"/>
<stop offset="0.833" stop-color="#DC4C37"/>
<stop offset="0.916" stop-color="#CF3633"/>
</linearGradient>
</defs>
</svg>
