<svg width="141" height="141" viewBox="0 0 141 141" fill="none" xmlns="http://www.w3.org/2000/svg">
<path d="M64.8895 18.3314L67.9452 24.0707C68.6322 25.1298 69.3764 26.0673 70.2531 26.9404C72.8232 29.4784 75.2189 32.1873 77.4237 35.0484C82.6013 41.8468 86.0935 49.3966 88.5875 57.5619C90.0832 62.5498 90.8954 67.6665 90.9562 72.8405C91.2067 88.3087 85.9039 101.591 75.2124 112.629C73.4733 114.38 71.5945 115.986 69.5947 117.431C68.5356 117.431 68.0346 116.619 67.5981 115.871C66.8031 114.484 66.2741 112.961 66.038 111.38C65.6623 109.509 65.4154 107.638 65.5371 105.705V104.832C65.4512 104.646 64.5173 18.7715 64.8895 18.3314Z" fill="#599636"/>
<path d="M64.8895 18.1418C64.7643 17.8913 64.6391 18.0809 64.5138 18.2026C64.5747 19.4549 64.1381 20.5713 63.4547 21.6376C62.7033 22.6967 61.7086 23.509 60.7103 24.382C55.1643 29.1839 50.799 34.984 47.3032 41.4711C42.6516 50.2017 40.2543 59.5585 39.5745 69.4091C39.2632 72.9622 40.698 85.4999 41.8179 89.1174C44.8736 98.7211 50.3624 106.768 57.4721 113.753C59.2183 115.434 61.086 116.995 63.0182 118.494C63.58 118.494 63.6408 117.993 63.7696 117.621C64.0159 116.824 64.2036 116.011 64.3314 115.188L65.5837 105.834L64.8895 18.1418Z" fill="#6CAC48"/>
<path d="M67.9452 121.23C68.0704 119.799 68.7574 118.611 69.5052 117.427C68.7538 117.116 68.1956 116.497 67.7591 115.806C67.3827 115.152 67.0711 114.463 66.8288 113.749C65.9557 111.13 65.7697 108.382 65.5192 105.705V104.084C65.2079 104.335 65.1435 106.453 65.1435 106.768C64.9614 109.597 64.586 112.41 64.0199 115.187C63.8339 116.311 63.7086 117.431 63.0181 118.429C63.0181 118.554 63.0181 118.679 63.0789 118.865C64.2024 122.172 64.5102 125.538 64.6998 128.97V130.222C64.6998 131.718 64.639 131.403 65.8806 131.904C66.3815 132.09 66.9397 132.154 67.4406 132.526C67.8164 132.526 67.8772 132.215 67.8772 131.965L67.6911 129.907V124.168C67.6303 123.166 67.8164 122.172 67.9416 121.234L67.9452 121.23Z" fill="#C2BFBF"/>
</svg>
