<svg width="141" height="141" viewBox="0 0 141 141" fill="none" xmlns="http://www.w3.org/2000/svg">
<path d="M64.1543 1.78987C67.988 -0.202635 72.9814 -0.211635 76.8118 1.78987C96.0822 11.6769 115.359 21.5484 134.626 31.4414C138.25 33.295 140.674 36.957 140.637 40.7485V100.233C140.664 104.181 138 107.931 134.177 109.742C114.97 119.575 95.7727 129.419 76.569 139.252C72.656 141.283 67.5624 141.127 63.7716 138.929C58.0134 135.898 52.2452 132.882 46.4864 129.854C45.3096 129.217 43.9831 128.71 43.1521 127.674C43.8867 126.775 45.2 126.663 46.2672 126.27C48.6708 125.576 50.8784 124.462 53.0866 123.381C53.645 123.034 54.3267 123.167 54.8619 123.478C59.7859 126.041 64.6664 128.679 69.607 131.218C70.6609 131.771 71.7281 131.037 72.629 130.581C91.477 120.909 110.348 111.273 129.193 101.597C129.891 101.292 130.277 100.619 130.22 99.9246C130.234 80.3021 130.224 60.676 130.227 41.0535C130.307 40.2655 129.805 39.541 129.02 39.2185C109.88 29.4309 90.749 19.6284 71.6119 9.83839C71.2804 9.63142 70.8876 9.52036 70.4852 9.51983C70.0829 9.51929 69.6898 9.6293 69.3575 9.83539C50.2204 19.6284 31.0932 29.4399 11.9561 39.227C11.1742 39.55 10.6494 40.2625 10.7424 41.0535C10.7457 60.676 10.7424 80.3021 10.7424 99.9276C10.7093 100.266 10.7912 100.606 10.9773 100.902C11.1634 101.197 11.4446 101.433 11.7832 101.579C16.89 104.209 22.0035 106.82 27.1136 109.44C29.9924 110.847 33.5271 111.683 36.6989 110.605C39.4979 109.694 41.4599 107.1 41.4065 104.402C41.433 84.8936 41.3933 65.3825 41.4264 45.8775C41.3564 45.0115 42.2612 44.296 43.1885 44.3775C45.6422 44.3625 48.0993 44.3475 50.553 44.3835C51.5772 44.3625 52.2821 45.295 52.1554 46.1675C52.1455 65.799 52.1819 85.4311 52.1389 105.063C52.1455 110.295 49.7782 115.988 44.4484 118.548C37.8823 121.636 29.7667 120.981 23.2799 118.02C17.6642 115.475 12.3052 112.471 6.78925 109.745C2.9561 107.943 0.305767 104.179 0.332749 100.233V40.7485C0.292551 36.8785 2.81293 33.15 6.54971 31.3234C25.7535 21.4829 44.9539 11.6349 64.1543 1.78987Z" fill="#8CC84B"/>
<path d="M80.9077 42.9949C89.2833 42.5054 98.2497 42.7049 105.787 46.4513C111.622 49.3223 114.857 55.3478 114.96 61.2343C114.797 62.0283 113.883 62.4663 113.048 62.4118C110.618 62.4088 108.188 62.4418 105.757 62.3968C104.727 62.4328 104.127 61.5698 103.998 60.7423C103.3 57.9258 101.608 55.1363 98.6886 53.7778C94.2067 51.7403 89.0101 51.8428 84.123 51.8853C80.5553 52.0573 76.7188 52.3378 73.6962 54.2428C71.3757 55.6858 70.6709 58.5988 71.4991 60.9448C72.2799 62.6293 74.4214 63.1728 76.1736 63.6738C86.2673 66.0708 96.9634 65.8323 106.864 68.9868C110.963 70.2728 114.973 72.7728 116.376 76.6698C118.212 81.8927 117.407 88.1357 113.315 92.3287C109.996 95.7792 105.162 97.6572 100.341 98.6772C93.9276 99.9757 87.2717 100.009 80.7585 99.4322C74.634 98.7982 68.2606 97.3372 63.5326 93.5482C59.4897 90.3607 57.515 85.3942 57.711 80.6007C57.7578 79.7913 58.6455 79.2268 59.4996 79.2933C61.9467 79.2753 64.3939 79.2693 66.841 79.2963C67.8185 79.2328 68.5431 79.9998 68.5932 80.8363C69.0448 83.5197 70.1555 86.3362 72.7326 87.9272C77.7061 90.8407 83.9468 90.6412 89.6418 90.7227C94.3598 90.5327 99.6561 90.4752 103.506 87.6437C105.538 86.0287 106.14 83.3267 105.591 81.0023C104.996 79.0398 102.735 78.1253 100.793 77.5273C90.829 74.6653 80.0134 75.7038 70.1456 72.4673C66.1395 71.1818 62.2656 68.7513 60.7265 65.0143C58.5789 59.7253 59.5629 53.1833 64.0844 49.1318C68.493 45.1018 74.857 43.5499 80.9077 42.9944V42.9949Z" fill="#8CC84B"/>
</svg>
