<svg width="153" height="112" viewBox="0 0 153 112" fill="none" xmlns="http://www.w3.org/2000/svg">
<path d="M89.2498 86.6581C57.375 86.6581 30.2856 71.1582 30.2856 52.5906C30.2856 34.0229 54.1877 18.577 86.0625 18.577C126.319 18.577 144.975 33.6115 144.975 52.1792C144.975 70.7468 124.411 86.6581 89.2498 86.6581ZM76.5 0.00933838C35.0627 0.00933838 0 21.6714 0 49.5228C0 75.8274 34.8505 97.6647 76.2884 97.6647C117.726 97.6647 153 77.3743 153 49.5228C153 21.6714 117.937 0.00933838 76.5 0.00933838Z" fill="url(#paint0_linear)"/>
<path d="M63.3193 30.0802V111.957H88.8052V80.1165C95.1768 80.1165 98.9719 78.7657 103.141 86.1811C109.512 96.7948 117.477 111.957 117.477 111.957H147.741C147.741 111.957 128.626 81.6326 127.034 80.1165C124.096 77.0836 120.662 77.0836 115.884 75.5674C125.441 74.0512 134.351 70.2014 137.448 61.9527C140.156 54.3719 139.838 44.7283 134.033 38.2616C129.007 33.1444 123.848 30.0802 111.105 30.0802H63.3193ZM88.8052 47.1322H105.53C109.496 47.1322 112.698 50.9229 112.698 54.7131C112.698 58.5037 109.512 62.2944 105.53 62.2944H88.8052V47.1322Z" fill="#2165B6"/>
<defs>
<linearGradient id="paint0_linear" x1="58.0987" y1="16.6098" x2="103.099" y2="95.3108" gradientUnits="userSpaceOnUse">
<stop stop-color="#C9CBCE"/>
<stop offset="1" stop-color="#7B7A81"/>
</linearGradient>
</defs>
</svg>
