<svg width="237" height="71" viewBox="0 0 237 71" fill="none" xmlns="http://www.w3.org/2000/svg">
<path d="M58.9965 0.799998V26H53.1645V15.668H41.7165V26H35.8845V0.799998H41.7165V10.736H53.1645V0.799998H58.9965ZM81.5547 20.6H69.8547L67.6227 26H61.6467L72.8787 0.799998H78.6387L89.9067 26H83.7867L81.5547 20.6ZM79.7187 16.172L75.7227 6.524L71.7267 16.172H79.7187ZM108.577 26L103.717 18.98H103.429H98.3532V26H92.5212V0.799998H103.429C105.661 0.799998 107.593 1.172 109.225 1.916C110.881 2.66 112.153 3.716 113.041 5.084C113.929 6.452 114.373 8.072 114.373 9.944C114.373 11.816 113.917 13.436 113.005 14.804C112.117 16.148 110.845 17.18 109.189 17.9L114.841 26H108.577ZM108.469 9.944C108.469 8.528 108.013 7.448 107.101 6.704C106.189 5.936 104.857 5.552 103.105 5.552H98.3532V14.336H103.105C104.857 14.336 106.189 13.952 107.101 13.184C108.013 12.416 108.469 11.336 108.469 9.944ZM127.274 26.432C125.282 26.432 123.35 26.168 121.478 25.64C119.63 25.088 118.142 24.38 117.014 23.516L118.994 19.124C120.074 19.916 121.358 20.552 122.846 21.032C124.334 21.512 125.822 21.752 127.31 21.752C128.966 21.752 130.19 21.512 130.982 21.032C131.774 20.528 132.17 19.868 132.17 19.052C132.17 18.452 131.93 17.96 131.45 17.576C130.994 17.168 130.394 16.844 129.65 16.604C128.93 16.364 127.946 16.1 126.698 15.812C124.778 15.356 123.206 14.9 121.982 14.444C120.758 13.988 119.702 13.256 118.814 12.248C117.95 11.24 117.518 9.896 117.518 8.216C117.518 6.752 117.914 5.432 118.706 4.256C119.498 3.056 120.686 2.108 122.27 1.412C123.878 0.715999 125.834 0.368 128.138 0.368C129.746 0.368 131.318 0.559999 132.854 0.943999C134.39 1.328 135.734 1.88 136.886 2.6L135.086 7.028C132.758 5.708 130.43 5.048 128.102 5.048C126.47 5.048 125.258 5.312 124.466 5.84C123.698 6.368 123.314 7.064 123.314 7.928C123.314 8.792 123.758 9.44 124.646 9.872C125.558 10.28 126.938 10.688 128.786 11.096C130.706 11.552 132.278 12.008 133.502 12.464C134.726 12.92 135.77 13.64 136.634 14.624C137.522 15.608 137.966 16.94 137.966 18.62C137.966 20.06 137.558 21.38 136.742 22.58C135.95 23.756 134.75 24.692 133.142 25.388C131.534 26.084 129.578 26.432 127.274 26.432ZM165.063 0.799998V26H159.231V15.668H147.783V26H141.951V0.799998H147.783V10.736H159.231V0.799998H165.063ZM171.025 0.799998H176.857V26H171.025V0.799998ZM188.058 5.552H179.994V0.799998H201.954V5.552H193.89V26H188.058V5.552ZM10.2739 70.432C8.28186 70.432 6.34986 70.168 4.47786 69.64C2.62986 69.088 1.14186 68.38 0.0138594 67.516L1.99386 63.124C3.07386 63.916 4.35786 64.552 5.84586 65.032C7.33386 65.512 8.82186 65.752 10.3099 65.752C11.9659 65.752 13.1899 65.512 13.9819 65.032C14.7739 64.528 15.1699 63.868 15.1699 63.052C15.1699 62.452 14.9299 61.96 14.4499 61.576C13.9939 61.168 13.3939 60.844 12.6499 60.604C11.9299 60.364 10.9459 60.1 9.69786 59.812C7.77786 59.356 6.20586 58.9 4.98186 58.444C3.75786 57.988 2.70186 57.256 1.81386 56.248C0.949859 55.24 0.517859 53.896 0.517859 52.216C0.517859 50.752 0.913859 49.432 1.70586 48.256C2.49786 47.056 3.68586 46.108 5.26986 45.412C6.87786 44.716 8.83386 44.368 11.1379 44.368C12.7459 44.368 14.3179 44.56 15.8539 44.944C17.3899 45.328 18.7339 45.88 19.8859 46.6L18.0859 51.028C15.7579 49.708 13.4299 49.048 11.1019 49.048C9.46986 49.048 8.25786 49.312 7.46586 49.84C6.69786 50.368 6.31386 51.064 6.31386 51.928C6.31386 52.792 6.75786 53.44 7.64586 53.872C8.55786 54.28 9.93786 54.688 11.7859 55.096C13.7059 55.552 15.2779 56.008 16.5019 56.464C17.7259 56.92 18.7699 57.64 19.6339 58.624C20.5219 59.608 20.9659 60.94 20.9659 62.62C20.9659 64.06 20.5579 65.38 19.7419 66.58C18.9499 67.756 17.7499 68.692 16.1419 69.388C14.5339 70.084 12.5779 70.432 10.2739 70.432ZM41.0069 70L36.1469 62.98H35.8589H30.7829V70H24.9509V44.8H35.8589C38.0909 44.8 40.0229 45.172 41.6549 45.916C43.3109 46.66 44.5829 47.716 45.4709 49.084C46.3589 50.452 46.8029 52.072 46.8029 53.944C46.8029 55.816 46.3469 57.436 45.4349 58.804C44.5469 60.148 43.2749 61.18 41.6189 61.9L47.2709 70H41.0069ZM40.8989 53.944C40.8989 52.528 40.4429 51.448 39.5309 50.704C38.6189 49.936 37.2869 49.552 35.5349 49.552H30.7829V58.336H35.5349C37.2869 58.336 38.6189 57.952 39.5309 57.184C40.4429 56.416 40.8989 55.336 40.8989 53.944ZM51.4235 44.8H57.2555V70H51.4235V44.8ZM87.3234 44.8L76.4154 70H70.6554L59.7834 44.8H66.0834L73.7514 62.8L81.5274 44.8H87.3234ZM105.18 64.6H93.4797L91.2477 70H85.2717L96.5037 44.8H102.264L113.532 70H107.412L105.18 64.6ZM103.344 60.172L99.3477 50.524L95.3517 60.172H103.344ZM124.426 70.432C122.434 70.432 120.502 70.168 118.63 69.64C116.782 69.088 115.294 68.38 114.166 67.516L116.146 63.124C117.226 63.916 118.51 64.552 119.998 65.032C121.486 65.512 122.974 65.752 124.462 65.752C126.118 65.752 127.342 65.512 128.134 65.032C128.926 64.528 129.322 63.868 129.322 63.052C129.322 62.452 129.082 61.96 128.602 61.576C128.146 61.168 127.546 60.844 126.802 60.604C126.082 60.364 125.098 60.1 123.85 59.812C121.93 59.356 120.358 58.9 119.134 58.444C117.91 57.988 116.854 57.256 115.966 56.248C115.102 55.24 114.67 53.896 114.67 52.216C114.67 50.752 115.066 49.432 115.858 48.256C116.65 47.056 117.838 46.108 119.422 45.412C121.03 44.716 122.986 44.368 125.29 44.368C126.898 44.368 128.47 44.56 130.006 44.944C131.542 45.328 132.886 45.88 134.038 46.6L132.238 51.028C129.91 49.708 127.582 49.048 125.254 49.048C123.622 49.048 122.41 49.312 121.618 49.84C120.85 50.368 120.466 51.064 120.466 51.928C120.466 52.792 120.91 53.44 121.798 53.872C122.71 54.28 124.09 54.688 125.938 55.096C127.858 55.552 129.43 56.008 130.654 56.464C131.878 56.92 132.922 57.64 133.786 58.624C134.674 59.608 135.118 60.94 135.118 62.62C135.118 64.06 134.71 65.38 133.894 66.58C133.102 67.756 131.902 68.692 130.294 69.388C128.686 70.084 126.73 70.432 124.426 70.432ZM143.972 49.552H135.908V44.8H157.868V49.552H149.804V70H143.972V49.552ZM176.336 64.6H164.636L162.404 70H156.428L167.66 44.8H173.42L184.688 70H178.568L176.336 64.6ZM174.5 60.172L170.504 50.524L166.508 60.172H174.5ZM210.159 44.8L199.251 70H193.491L182.619 44.8H188.919L196.587 62.8L204.363 44.8H210.159ZM228.016 64.6H216.316L214.084 70H208.108L219.34 44.8H225.1L236.368 70H230.248L228.016 64.6ZM226.18 60.172L222.184 50.524L218.188 60.172H226.18Z" fill="#C6A603"/>
</svg>
