<svg width="629" height="629" viewBox="0 0 629 629" fill="none" xmlns="http://www.w3.org/2000/svg">
<circle cx="314.5" cy="314.5" r="314.5" fill="#20163F"/>
<path d="M585 314C585 460.355 463.893 579 314.5 579C165.107 579 44 460.355 44 314C44 167.645 165.107 49 314.5 49C463.893 49 585 167.645 585 314Z" fill="#C6A603"/>
<circle cx="314" cy="314" r="250" fill="#20163F"/>
<path d="M314 136L438.049 151.289V206.33H425.407V196.392L333.753 206.33L338.494 333.994L314 345.46L289.506 333.994L294.247 206.33L202.593 196.392V206.33H189.951V151.289L314 136Z" fill="#C6A603"/>
<path d="M314 136L438.049 151.289V206.33H425.407V196.392L333.753 206.33L338.494 333.994L314 345.46L289.506 333.994L294.247 206.33L202.593 196.392V206.33H189.951V151.289L314 136Z" fill="url(#paint0_linear)"/>
<path d="M314 136L438.049 151.289V206.33H425.407V196.392L333.753 206.33L338.494 333.994L314 345.46L289.506 333.994L294.247 206.33L202.593 196.392V206.33H189.951V151.289L314 136Z" stroke="#C6A603"/>
<path d="M341.654 330.171V308.002L442 210.152L438.049 218.561L428.568 405.852L433.309 411.968L341.654 493L353.506 324.82L341.654 330.171Z" fill="#C6A603"/>
<path d="M341.654 330.171V308.002L442 210.152L438.049 218.561L428.568 405.852L433.309 411.968L341.654 493L353.506 324.82L341.654 330.171Z" fill="url(#paint1_linear)"/>
<path d="M341.654 330.171V308.002L442 210.152L438.049 218.561L428.568 405.852L433.309 411.968L341.654 493L353.506 324.82L341.654 330.171Z" stroke="#C6A603"/>
<path d="M286.346 330.171V308.002L186 210.152L189.951 218.561L199.432 405.852L194.691 411.968L286.346 493L274.494 324.82L286.346 330.171Z" fill="#C6A603"/>
<path d="M286.346 330.171V308.002L186 210.152L189.951 218.561L199.432 405.852L194.691 411.968L286.346 493L274.494 324.82L286.346 330.171Z" fill="url(#paint2_linear)"/>
<path d="M286.346 330.171V308.002L186 210.152L189.951 218.561L199.432 405.852L194.691 411.968L286.346 493L274.494 324.82L286.346 330.171Z" stroke="#C6A603"/>
<defs>
<linearGradient id="paint0_linear" x1="314" y1="136" x2="314" y2="345.46" gradientUnits="userSpaceOnUse">
<stop stop-color="#C6BF9E"/>
<stop offset="1" stop-color="white" stop-opacity="0"/>
</linearGradient>
<linearGradient id="paint1_linear" x1="391.827" y1="210.152" x2="391.827" y2="493" gradientUnits="userSpaceOnUse">
<stop stop-color="#C6BF9E"/>
<stop offset="1" stop-color="white" stop-opacity="0"/>
</linearGradient>
<linearGradient id="paint2_linear" x1="236.173" y1="210.152" x2="236.173" y2="493" gradientUnits="userSpaceOnUse">
<stop stop-color="#C6BF9E"/>
<stop offset="1" stop-color="white" stop-opacity="0"/>
</linearGradient>
</defs>
</svg>
